# xmcd
#
# Track frame offsets: 
#        150
#        23368
#        44395
#        65805
#        84998
#        103740
#        125318
#        146318
#        166025
#        184825
#
# Disc length: 2729 seconds
#
# Revision: 10
# Processed by: cddbd v1.5.2PL0 Copyright (c) Steve Scherf et al.
# Submitted via: ExactAudioCopy v1.1
#
DISCID=780aa70a
DTITLE=孟庭苇 - 冬季到台北来看雨(92年台湾版)[追梦者原创]
DYEAR=1992
DGENRE=Pop
TTITLE0=冬季到台北来看雨
TTITLE1=无声的雨
TTITLE2=把他换做你
TTITLE3=没有情人的情人节
TTITLE4=两小无猜
TTITLE5=哑哑与亚亚
TTITLE6=偏心
TTITLE7=心港
TTITLE8=千年的新娘
TTITLE9=等待花开
EXTD=
EXTT0=
EXTT1=
EXTT2=
EXTT3=
EXTT4=
EXTT5=
EXTT6=
EXTT7=
EXTT8=
EXTT9=
PLAYORDER=
